<svg xmlns="http://www.w3.org/2000/svg" viewBox="0 0 448.3 224.29"><defs><style>.cls-1{fill:#2345d8;}</style></defs><g id="Layer_2" data-name="Layer 2"><g id="Layer_1-2" data-name="Layer 1"><path class="cls-1" d="M331.66,185.15c-28.77,44.55-101.28,54-136.84,13-10.63-12.28-17.71-20.4-22.1-26.38a3,3,0,0,1,4.3-4.23c18.84,13.77,48.86,24.62,82.38-27.29L334.9,23.33A51,51,0,0,1,380.08.05l67.08,3a1.19,1.19,0,0,1,.95,1.84L331.66,185.15"/><path class="cls-1" d="M116.64,39.14c28.77-44.55,101.28-54,136.84-13,10.64,12.28,17.72,20.39,22.11,26.38a3,3,0,0,1-4.3,4.23C252.44,43,222.43,32.16,188.9,84.06L113.4,201a51,51,0,0,1-45.18,23.27L1.15,221.28a1.2,1.2,0,0,1-1-1.85L116.64,39.14"/></g></g></svg>
